<svg xmlns="http://www.w3.org/2000/svg" xmlns:xlink="http://www.w3.org/1999/xlink" width="47" height="29" version="1.1" viewBox="0 0 47 29"><title>double-half-circle copy</title><desc>Created with Sketch.</desc><g id="Personal-1-mixed" fill="none" fill-rule="evenodd" stroke="none" stroke-width="1"><g id="hero" fill="#44D7B6"><g transform="translate(-1250.000000, -359.000000) translate(290.000000, 0.000000)"><g id="shapes" transform="translate(77.000000, 42.000000)"><g id="double-half-circle-copy" transform="translate(904.500000, 333.500000) rotate(-160.000000) translate(-904.500000, -333.500000) translate(880.000000, 325.000000)"><path id="Segment-1" d="M5,-4 C10.7170859,-4 15.9989499,-1.6175 18.8566928,2.25 C21.7144357,6.1175 21.7144357,10.8825 18.8566928,14.75 C15.9989499,18.6175 10.7170859,21 5,21 L5,18.5 C9.57302865,18.5 13.7988399,16.59375 16.0853543,13.5 C18.3718686,10.40625 18.3718686,6.59375 16.0853543,3.5 C13.7988399,0.40625 9.57302865,-1.5 5,-1.5 L5,-4 Z" transform="translate(13.000000, 8.500000) rotate(-90.000000) translate(-13.000000, -8.500000)"/><path id="Segment-1-Copy" d="M28,-4 C33.7170859,-4 38.9989499,-1.6175 41.8566928,2.25 C44.7144357,6.1175 44.7144357,10.8825 41.8566928,14.75 C38.9989499,18.6175 33.7170859,21 28,21 L28,18.5 C32.5730287,18.5 36.7988399,16.59375 39.0853543,13.5 C41.3718686,10.40625 41.3718686,6.59375 39.0853543,3.5 C36.7988399,0.40625 32.5730287,-1.5 28,-1.5 L28,-4 Z" transform="translate(36.000000, 8.500000) rotate(-90.000000) translate(-36.000000, -8.500000)"/></g></g></g></g></g></svg>