<svg xmlns="http://www.w3.org/2000/svg" xmlns:xlink="http://www.w3.org/1999/xlink" width="30" height="25" version="1.1" viewBox="0 0 30 25"><title>half-circle</title><desc>Created with Sketch.</desc><g id="Personal-1-mixed" fill="none" fill-rule="evenodd" stroke="none" stroke-width="1"><g id="hero" fill="#44D7B6"><g transform="translate(-461.000000, -603.000000) translate(290.000000, 0.000000)"><g id="shapes" transform="translate(77.000000, 42.000000)"><g id="half-circle" transform="translate(112.000000, 571.000000) rotate(30.000000) translate(-112.000000, -571.000000) translate(96.000000, 563.000000)"><path id="Segment-1" d="M8,-8 C13.7170859,-8 18.9989499,-4.9504 21.8566928,0 C24.7144357,4.9504 24.7144357,11.0496 21.8566928,16 C18.9989499,20.9504 13.7170859,24 8,24 L8,20.8 C12.5730287,20.8 16.7988399,18.36 19.0853543,14.4 C21.3718686,10.44 21.3718686,5.56 19.0853543,1.6 C16.7988399,-2.36 12.5730287,-4.8 8,-4.8 L8,-8 Z" transform="translate(16.000000, 8.000000) rotate(-90.000000) translate(-16.000000, -8.000000)"/></g></g></g></g></g></svg>