<svg xmlns="http://www.w3.org/2000/svg" id="Layer_1" width="512" height="512" enable-background="new 0 0 64 64" viewBox="0 0 64 64"><g><g><path fill="#353744" d="m51 41v-31c0-2.209-1.791-4-4-4h6c2.209 0 4 1.791 4 4v31c0 1.657-1.343 3-3 3-1.657 0-3-1.343-3-3z"/></g><path fill="gray" d="m56 44h-2c-.353 0-.686-.072-1-.184v4.184c0 2.953-1.613 5.532-4 6.917v1.083c0 2.209-1.791 4-4 4 6.617 0 12-5.383 12-12v-4.184c-.314.112-.647.184-1 .184z"/><g><path fill="#353744" d="m53 4c-3.314 0-6 2.686-6 6v14h2v-14c0-2.209 1.791-4 4-4s4 1.791 4 4v31c0 1.657-1.343 3-3 3h2c1.657 0 3-1.343 3-3v-31c0-3.314-2.686-6-6-6z"/></g><g><g><path fill="#353744" d="m35 24v-14c0-2.209-1.791-4-4-4h6c2.209 0 4 1.791 4 4v14z"/></g><g><path fill="#55525b" d="m37 4h-6c-3.314 0-6 2.686-6 6v14h6v-14c0-3.314 2.686-6 6-6z"/></g><g><path fill="#353744" d="m37 4c-3.314 0-6 2.686-6 6v14h2v-14c0-2.209 1.791-4 4-4s4 1.791 4 4v14h2v-14c0-3.314-2.686-6-6-6z"/></g></g><g><g><path fill="#353744" d="m51 41v-31c0-2.209-1.791-4-4-4h6c2.209 0 4 1.791 4 4v31c0 1.657-1.343 3-3 3-1.657 0-3-1.343-3-3z"/></g><g><path fill="#55525b" d="m53 4h-6c-3.314 0-6 2.686-6 6v14h6v-14c0-3.314 2.686-6 6-6z"/></g></g><g><path fill="#5c76b2" d="m33 8h-10c-8.837 0-16 7.163-16 16v32c0 2.209 1.791 4 4 4h34c2.209 0 4-1.791 4-4v-32c0-8.837-7.163-16-16-16z"/></g><g><path fill="#6fa4d8" d="m23 8c-8.837 0-16 7.163-16 16v32c0 2.209 1.791 4 4 4h24c2.209 0 4-1.791 4-4v-32c0-8.837-7.163-16-16-16z"/></g><g><path fill="#f68820" d="m31 30h-22c-2.209 0-4 1.791-4 4v18c0 2.209 1.791 4 4 4h22c2.209 0 4-1.791 4-4v-18c0-2.209-1.791-4-4-4z"/></g><g><path fill="#fbbe18" d="m25 30h-16c-2.209 0-4 1.791-4 4v18c0 2.209 1.791 4 4 4h16c2.209 0 4-1.791 4-4v-18c0-2.209-1.791-4-4-4z"/></g><g><path fill="#f68820" d="m5 36h24v2h-24z"/></g><g><path fill="#dbdee3" d="m29.5 20h-13.5c-.552 0-1-.448-1-1 0-.552.448-1 1-1h13.5c.552 0 1 .448 1 1 0 .552-.448 1-1 1z"/></g><g><path fill="#55525b" d="m43 24v3c0 .552.448 1 1 1 .552 0 1-.448 1-1v-3c0-8.837-7.163-16-16-16h-2c8.837 0 16 7.163 16 16z"/></g></g></svg>